<?xml version="1.0" encoding="UTF-8"?>
<svg width="2279px" height="520px" viewBox="0 0 2279 520" version="1.1" xmlns="http://www.w3.org/2000/svg" xmlns:xlink="http://www.w3.org/1999/xlink">
    <!-- Generator: Sketch 52.4 (67378) - http://www.bohemiancoding.com/sketch -->
    <title>futer texture</title>
    <desc>Created with Sketch.</desc>
    <defs>
        <polygon id="path-1" points="6.26498853e-13 9.24693483e-13 2300 0 2300 520.556153 0 520.556153"></polygon>
        <rect id="path-3" x="0" y="559" width="2558" height="68"></rect>
        <filter x="-0.0%" y="-0.7%" width="100.0%" height="101.5%" filterUnits="objectBoundingBox" id="filter-4">
            <feOffset dx="0" dy="1" in="SourceAlpha" result="shadowOffsetInner1"></feOffset>
            <feComposite in="shadowOffsetInner1" in2="SourceAlpha" operator="arithmetic" k2="-1" k3="1" result="shadowInnerInner1"></feComposite>
            <feColorMatrix values="0 0 0 0 0.894117647   0 0 0 0 0.239215686   0 0 0 0 0.133333333  0 0 0 1 0" type="matrix" in="shadowInnerInner1"></feColorMatrix>
        </filter>
        <path d="M5.45299003,249 L12.8534476,411.5 L106,489 C112.803887,491.17856 117.803887,493.345227 121,495.5 C130.292897,501.765139 137,511.5 139,513.5 C140.333333,514.833333 112.666667,554 56,631 L368,640.5 L418.523177,274 L332,33.5 L202.897028,0 L0.853447629,148.5 L5.45299003,249 Z" id="path-5"></path>
    </defs>
    <g id="futer-texture" stroke="none" stroke-width="1" fill="none" fill-rule="evenodd">
        <g id="Futter" transform="translate(-139.000000, -107.000000)">
            <g id="Rectangle-3" transform="translate(118.000000, 107.000000)">
                <mask id="mask-2" fill="white">
                    <use xlink:href="#path-1"></use>
                </mask>
                <use id="Rectangle" fill="#D32E30" xlink:href="#path-1"></use>
                <g id="Group-64-Copy" opacity="0.400000006" mask="url(#mask-2)">
                    <g transform="translate(-109.000000, -97.000000)">
                        <path d="M619.525354,653.302031 C619.464795,653.302031 619.406431,653.302031 619.345872,653.301811 C602.760959,653.254202 586.874443,646.620693 575.180726,634.860723 C563.533086,623.146826 556.996059,607.301878 556.992109,590.788204 C556.992109,590.723481 556.992109,590.658759 556.992328,590.594036 C557.039941,574.010593 563.673951,558.124837 575.434809,546.432222 L851.327096,272.140636 C863.044948,260.491023 878.898332,253.953391 895.417641,253.953391 C895.478199,253.953391 895.536344,253.953391 895.597122,253.953611 C912.182036,254.00122 928.068552,260.634729 939.762049,272.39448 C951.409908,284.108596 957.946936,299.953544 957.950886,316.466999 C957.950886,316.531722 957.950886,316.596664 957.950666,316.661386 C957.902834,333.244829 951.269044,349.130366 939.508186,360.822981 L663.615899,635.114786 C651.898047,646.764399 636.044662,653.302031 619.525354,653.302031" id="Fill-2" fill="#D32F2F"></path>
                        <path d="M805.208213,781.693983 C805.147655,781.693983 805.089291,781.693983 805.028732,781.693764 C788.443818,781.646155 772.557303,775.012646 760.863805,763.252675 C749.215946,751.538779 742.678918,735.69383 742.674969,719.180156 C742.674969,719.115434 742.674969,719.050711 742.675188,718.985989 C742.722801,702.402546 749.356811,686.516789 761.117668,674.824174 L1037.00996,400.532369 C1048.72781,388.882756 1064.58119,382.345124 1081.1005,382.345124 C1081.16106,382.345124 1081.21942,382.345124 1081.27998,382.345344 C1097.8649,382.393173 1113.75119,389.026462 1125.44469,400.786433 C1137.09277,412.500329 1143.6298,428.345277 1143.63375,444.858732 C1143.63375,444.923455 1143.63375,444.988397 1143.63353,445.053119 C1143.58569,461.636562 1136.9519,477.522099 1125.19105,489.214714 L849.298759,763.506739 C837.580906,775.156352 821.727522,781.693983 805.208213,781.693983" id="Fill-4" fill="#D32F2F"></path>
                        <path d="M73.8252347,849.951245 C73.7646762,849.951245 73.7063118,849.951245 73.6457533,849.951025 C57.0608398,849.903416 41.1743238,843.269907 29.4808265,831.509937 C17.8329674,819.79604 11.2959395,803.951092 11.29199,787.437418 C11.29199,787.372695 11.29199,787.307973 11.2922094,787.24325 C11.3398225,770.659807 17.9738318,754.774051 29.7346895,743.081436 L305.626977,468.789631 C317.344829,457.140018 333.198213,450.602386 349.717522,450.602386 C349.77808,450.602386 349.836445,450.602386 349.897003,450.602605 C366.481917,450.650434 382.368213,457.283724 394.061711,469.043694 C405.709789,480.757591 412.246817,496.602539 412.250767,513.115994 C412.250767,513.180716 412.250767,513.245658 412.250547,513.310381 C412.202715,529.893824 405.568925,545.77936 393.808067,557.471976 L117.91578,831.764 C106.197928,843.413613 90.3445432,849.951245 73.8252347,849.951245" id="Fill-4-Copy" fill="#D32F2F"></path>
                        <path d="M641.312024,523.050326 C634.242915,523.050326 627.19465,520.221404 622.006585,514.631793 C617.30233,509.563033 614.975874,503.137075 614.976093,496.727352 C614.976313,489.659654 617.805668,482.611702 623.395043,477.424467 L760.659245,350.044643 C771.318201,340.153946 787.977715,340.775502 797.869378,351.432995 C802.573852,356.501755 804.900309,362.927713 804.900089,369.337436 C804.89987,376.405134 802.070515,383.453305 796.48092,388.640321 L659.216718,516.020145 C654.148234,520.723607 647.721352,523.050326 641.312024,523.050326" id="Fill-6" fill="#FF550E"></path>
                        <path d="M782.267355,286.665772 C781.407029,286.665772 780.545387,286.643174 779.681989,286.597977 C766.606617,285.913016 754.338911,280.062101 745.577894,270.332662 C737.398326,261.249351 732.900759,249.480166 732.897029,237.318258 C732.89681,236.45317 732.91919,235.586108 732.964609,234.717949 C733.649842,221.643563 739.501198,209.376782 749.231371,200.616207 L919.541211,47.2787067 C929.271384,38.518131 942.081045,33.9836061 955.158612,34.6665932 C968.233984,35.3515548 980.50169,41.2024697 989.262927,50.9321279 C997.442275,60.0152192 1001.93984,71.7846238 1001.94357,83.9463126 C1001.94379,84.8116196 1001.92141,85.6786818 1001.87577,86.5468411 C1001.19054,99.621227 995.339403,111.888008 985.60923,120.648583 L815.29939,273.986083 C806.211883,282.168106 794.435447,286.665772 782.267355,286.665772" id="Fill-8" fill="#B82525"></path>
                        <path d="M520.044374,300.114846 C519.279713,300.114846 518.513736,300.094881 517.746223,300.054731 C506.123596,299.445681 495.219115,294.244843 487.431422,285.5966 C480.16089,277.522302 476.162932,267.06095 476.15964,256.250316 C476.159421,255.481325 476.179388,254.710579 476.21976,253.938735 C476.828856,242.317205 482.030086,231.413547 490.678982,223.626222 L660.989042,70.2889414 C669.638158,62.5018361 681.026449,58.4690752 692.649075,59.078125 C704.271482,59.6869554 715.176183,64.887793 722.963876,73.5360368 C730.234408,81.6103345 734.232147,92.0719056 734.235658,102.88232 C734.235877,103.651311 734.21591,104.422277 734.175318,105.193901 C733.566442,116.815431 728.365212,127.71909 719.716316,135.506634 L549.406256,288.843914 C541.328277,296.11675 530.860212,300.114846 520.044374,300.114846" id="Fill-10" fill="#D32F2F"></path>
                        <path d="M669.800393,232.496453 C663.79764,232.496453 657.820559,230.048845 653.487773,225.237001 C649.710546,221.042543 647.850566,215.791683 647.851663,210.559471 C647.85276,204.559146 650.300991,198.583174 655.111443,194.252031 L825.421284,40.9143119 C834.426729,32.8068851 848.300333,33.5337518 856.408811,42.5382984 C860.186038,46.7327559 862.045799,51.983397 862.044921,57.215828 C862.043824,63.2161532 859.595373,69.1921252 854.78514,73.5232678 L684.47508,226.860768 C680.282062,230.636174 675.031025,232.496453 669.800393,232.496453" id="Fill-12" fill="#FF550E"></path>
                        <path d="M1394.53324,953.34864 C1394.47269,953.34864 1394.41432,953.34864 1394.35376,953.34842 C1377.76885,953.300811 1361.88233,946.667302 1350.18862,934.907331 C1338.54098,923.193435 1332.00395,907.348487 1332,890.834812 C1332,890.77009 1332,890.705367 1332.00022,890.640645 C1332.04783,874.057202 1338.68184,858.171446 1350.4427,846.47883 L1626.33499,572.187245 C1638.05284,560.537632 1653.90622,554 1670.42553,554 C1670.48609,554 1670.54424,554 1670.60501,554.000219 C1687.18993,554.047829 1703.07644,560.681338 1714.76994,572.441089 C1726.4178,584.155205 1732.95483,600.000153 1732.95878,616.513608 C1732.95878,616.57833 1732.95878,616.643272 1732.95856,616.707995 C1732.91072,633.291438 1726.27693,649.176975 1714.51608,660.86959 L1438.62379,935.161395 C1426.90594,946.811008 1411.05255,953.34864 1394.53324,953.34864" id="Fill-2-Copy" fill="#D32F2F"></path>
                        <path d="M1556.37033,606.066513 C1555.51,606.066513 1554.64836,606.043915 1553.78496,605.998719 C1540.70959,605.313757 1528.44188,599.462842 1519.68087,589.733403 C1511.5013,580.650093 1507.00373,568.880907 1507,556.718999 C1506.99978,555.853912 1507.02216,554.986849 1507.06758,554.11869 C1507.75281,541.044304 1513.60417,528.777524 1523.33434,520.016948 L1693.64418,366.679448 C1703.37436,357.918872 1716.18402,353.384347 1729.26158,354.067334 C1742.33696,354.752296 1754.60466,360.603211 1763.3659,370.332869 C1771.54525,379.41596 1776.04281,391.185365 1776.04654,403.347054 C1776.04676,404.212361 1776.02438,405.079423 1775.97874,405.947582 C1775.29351,419.021968 1769.44238,431.288749 1759.7122,440.049324 L1589.40236,593.386824 C1580.31486,601.568847 1568.53842,606.066513 1556.37033,606.066513" id="Fill-8-Copy" fill="#B82525"></path>
                        <path d="M447.370327,316.066513 C446.510002,316.066513 445.648359,316.043915 444.784962,315.998719 C431.709589,315.313757 419.441883,309.462842 410.680866,299.733403 C402.501298,290.650093 398.003732,278.880907 398.000002,266.718999 C397.999782,265.853912 398.022163,264.986849 398.067581,264.11869 C398.752814,251.044304 404.60417,238.777524 414.334343,230.016948 L584.644184,76.6794479 C594.374357,67.9188722 607.184018,63.3843473 620.261584,64.0673343 C633.336956,64.7522959 645.604663,70.6032109 654.365899,80.3328691 C662.545248,89.4159604 667.042814,101.185365 667.046544,113.347054 C667.046764,114.212361 667.024383,115.079423 666.978745,115.947582 C666.293512,129.021968 660.442375,141.288749 650.712202,150.049324 L480.402362,303.386824 C471.314855,311.568847 459.538419,316.066513 447.370327,316.066513" id="Fill-8-Copy-2" fill="#B82525"></path>
                        <path d="M1294.88474,600.096909 C1294.12007,600.096909 1293.3541,600.076944 1292.58658,600.036794 C1280.96396,599.427744 1270.05948,594.226906 1262.27178,585.578662 C1255.00125,577.504365 1251.00329,567.043013 1251,556.232379 C1250.99978,555.463388 1251.01975,554.692642 1251.06012,553.920798 C1251.66922,542.299268 1256.87045,531.39561 1265.51934,523.608285 L1435.8294,370.271004 C1444.47852,362.483899 1455.86681,358.451138 1467.48944,359.060188 C1479.11184,359.669018 1490.01654,364.869856 1497.80424,373.5181 C1505.07477,381.592397 1509.07251,392.053968 1509.07602,402.864383 C1509.07624,403.633374 1509.05627,404.40434 1509.01568,405.175964 C1508.4068,416.797494 1503.20557,427.701153 1494.55668,435.488697 L1324.24662,588.825977 C1316.16864,596.098813 1305.70057,600.096909 1294.88474,600.096909" id="Fill-10-Copy-2" fill="#D32F2F"></path>
                        <path d="M1444.94873,532.217393 C1438.94598,532.217393 1432.9689,529.769785 1428.63611,524.957941 C1424.85888,520.763483 1422.9989,515.512623 1423,510.280411 C1423.0011,504.280086 1425.44933,498.304114 1430.25978,493.972971 L1600.56962,340.635252 C1609.57507,332.527825 1623.44867,333.254692 1631.55715,342.259238 C1635.33438,346.453696 1637.19414,351.704337 1637.19326,356.936768 C1637.19216,362.937093 1634.74371,368.913065 1629.93348,373.244208 L1459.62342,526.581708 C1455.4304,530.357115 1450.17936,532.217393 1444.94873,532.217393" id="Fill-12-Copy-14" fill="#FF550E"></path>
                        <path d="M336.948731,242.217393 C330.945978,242.217393 324.968897,239.769785 320.636111,234.957941 C316.858883,230.763483 314.998903,225.512623 315,220.280411 C315.001098,214.280086 317.449329,208.304114 322.259781,203.972971 L492.569621,50.635252 C501.575067,42.5278251 515.448671,43.2546918 523.557148,52.2592385 C527.334375,56.4536959 529.194136,61.704337 529.193258,66.936768 C529.192161,72.9370932 526.743711,78.9130652 521.933478,83.2442079 L351.623418,236.581708 C347.430399,240.357115 342.179362,242.217393 336.948731,242.217393" id="Fill-12-Copy-15" fill="#FF550E"></path>
                        <path d="M1152.8832,650.565612 L1152.81759,650.565612 C1141.17917,650.54828 1130.02412,645.908443 1121.80681,637.667403 C1113.60552,629.442159 1109.00066,618.30177 1109,606.688796 L1109,606.620563 C1109.01733,594.983017 1113.65752,583.828805 1121.89918,575.612118 L1284.20038,413.805842 C1292.42668,405.604513 1303.56945,401 1315.18396,401 L1315.24956,401 C1326.88799,401.017332 1338.04304,405.657169 1346.26035,413.898209 C1354.46164,422.123453 1359.0665,433.263842 1359.06715,444.876816 L1359.06715,444.945049 C1359.04982,456.582595 1354.40985,467.736807 1346.16797,475.953494 L1183.86678,637.75977 C1175.64047,645.961099 1164.49793,650.565612 1152.8832,650.565612" id="Fill-14" fill="#B82525"></path>
                        <path d="M1884.58941,421.565612 L1884.52381,421.565612 C1872.88538,421.54828 1861.73033,416.908443 1853.51302,408.667403 C1845.31173,400.442159 1840.70687,389.30177 1840.70622,377.688796 L1840.70622,377.620563 C1840.72355,365.983017 1845.36374,354.828805 1853.6054,346.612118 L2015.90659,184.805842 C2024.1329,176.604513 2035.27566,172 2046.89017,172 L2046.95578,172 C2058.5942,172.017332 2069.74925,176.657169 2077.96656,184.898209 C2086.16785,193.123453 2090.77271,204.263842 2090.77337,215.876816 L2090.77337,215.945049 C2090.75604,227.582595 2086.11607,238.736807 2077.87419,246.953494 L1915.57299,408.75977 C1907.34669,416.961099 1896.20414,421.565612 1884.58941,421.565612" id="Fill-14-Copy-3" fill="#E43D22"></path>
                        <path d="M44.8831981,360.565612 L44.8175931,360.565612 C33.1791689,360.54828 22.0241157,355.908443 13.8068085,347.667403 C5.60551862,339.442159 1.00065824,328.30177 1,316.688796 L1,316.620563 C1.01733378,304.983017 5.65751995,293.828805 13.8991822,285.612118 L176.200379,123.805842 C184.426682,115.604513 195.569448,111 207.183956,111 L207.249561,111 C218.887985,111.017332 230.043039,115.657169 238.260346,123.898209 C246.461636,132.123453 251.066496,143.263842 251.067154,154.876816 L251.067154,154.945049 C251.04982,166.582595 246.409854,177.736807 238.167972,185.953494 L75.8667753,347.75977 C67.6404721,355.961099 56.4979255,360.565612 44.8831981,360.565612" id="Fill-14-Copy" fill="#B82525"></path>
                        <path d="M2101.8832,471.565612 L2101.81759,471.565612 C2090.17917,471.54828 2079.02412,466.908443 2070.80681,458.667403 C2062.60552,450.442159 2058.00066,439.30177 2058,427.688796 L2058,427.620563 C2058.01733,415.983017 2062.65752,404.828805 2070.89918,396.612118 L2233.20038,234.805842 C2241.42668,226.604513 2252.56945,222 2264.18396,222 L2264.24956,222 C2275.88799,222.017332 2287.04304,226.657169 2295.26035,234.898209 C2303.46164,243.123453 2308.0665,254.263842 2308.06715,265.876816 L2308.06715,265.945049 C2308.04982,277.582595 2303.40985,288.736807 2295.16797,296.953494 L2132.86678,458.75977 C2124.64047,466.961099 2113.49793,471.565612 2101.8832,471.565612" id="Fill-14-Copy-2" fill="#B82525"></path>
                        <path d="M2378.84411,510.565612 L2378.7785,510.565612 C2367.14008,510.54828 2355.98503,505.908443 2347.76772,497.667403 C2339.56643,489.442159 2334.96157,478.30177 2334.96091,466.688796 L2334.96091,466.620563 C2334.97825,454.983017 2339.61843,443.828805 2347.86009,435.612118 L2510.16129,273.805842 C2518.38759,265.604513 2529.53036,261 2541.14487,261 L2541.21047,261 C2552.8489,261.017332 2564.00395,265.657169 2572.22126,273.898209 C2580.42255,282.123453 2585.02741,293.263842 2585.02807,304.876816 L2585.02807,304.945049 C2585.01073,316.582595 2580.37077,327.736807 2572.12888,335.953494 L2409.82769,497.75977 C2401.60138,505.961099 2390.45884,510.565612 2378.84411,510.565612" id="Fill-14-Copy-4" fill="#C82A2B"></path>
                        <path d="M1270.82725,399.950535 C1270.71799,399.950535 1270.61025,399.950315 1270.50098,399.949657 C1253.91629,399.863214 1238.04513,393.192627 1226.37928,381.405451 C1214.79308,369.698575 1208.2973,353.897287 1208.29357,337.43583 C1208.29357,337.32284 1208.29379,337.209411 1208.29445,337.096201 C1208.3809,320.512758 1215.05199,304.643018 1226.84027,292.977828 L1389.73411,131.785867 C1401.4445,120.197466 1417.25335,113.70152 1433.71999,113.70152 C1433.82926,113.70152 1433.93721,113.70174 1434.04648,113.702398 C1450.63118,113.788621 1466.50233,120.459428 1478.16819,132.246823 C1489.75417,143.953699 1496.25017,159.754987 1496.25368,176.215786 C1496.25368,176.329215 1496.25346,176.442644 1496.25302,176.555854 C1496.16657,193.139297 1489.49548,209.009256 1477.70698,220.674227 L1314.81336,381.866188 C1303.10297,393.454589 1287.2939,399.950535 1270.82725,399.950535" id="Fill-16" fill="#D32F2F"></path>
                        <path d="M1130.93995,748.932822 C1125.40477,748.932822 1119.86543,746.851609 1115.59649,742.675142 C1111.20227,738.376032 1108.99846,732.682864 1109,726.985528 C1109.00154,721.452741 1111.08291,715.916443 1115.25815,711.649145 L1295.35412,527.596097 C1303.8288,518.935128 1317.72083,518.783743 1326.38223,527.257785 C1330.77668,531.556895 1332.98026,537.250063 1332.97894,542.947399 C1332.97741,548.480186 1330.89582,554.016484 1326.72057,558.283562 L1146.62461,742.33683 C1142.32671,746.728965 1136.63553,748.932822 1130.93995,748.932822" id="Fill-18" fill="#FF550E"></path>
                        <path d="M1868.93995,527.932822 C1863.40477,527.932822 1857.86543,525.851609 1853.59649,521.675142 C1849.20227,517.376032 1846.99846,511.682864 1847,505.985528 C1847.00154,500.452741 1849.08291,494.916443 1853.25815,490.649145 L2033.35412,306.596097 C2041.8288,297.935128 2055.72083,297.783743 2064.38223,306.257785 C2068.77668,310.556895 2070.98026,316.250063 2070.97894,321.947399 C2070.97741,327.480186 2068.89582,333.016484 2064.72057,337.283562 L1884.62461,521.33683 C1880.32671,525.728965 1874.63553,527.932822 1868.93995,527.932822" id="Fill-18-Copy-3" fill="#C82A2B"></path>
                        <path d="M21.9399543,458.932822 C16.4047747,458.932822 10.8654263,456.851609 6.59649016,452.675142 C2.20226809,448.376032 -0.001535102,442.682864 8.02258876e-07,436.985528 C0.00153670651,431.452741 2.08290639,425.916443 6.2581524,421.649145 L186.354116,237.596097 C194.828797,228.935128 208.720832,228.783743 217.382235,237.257785 C221.776676,241.556895 223.98026,247.250063 223.978944,252.947399 C223.977408,258.480186 221.895819,264.016484 217.720573,268.283562 L37.6246085,452.33683 C33.3267096,456.728965 27.6355261,458.932822 21.9399543,458.932822" id="Fill-18-Copy" fill="#FF550E"></path>
                        <path d="M2119.93995,569.932822 C2114.40477,569.932822 2108.86543,567.851609 2104.59649,563.675142 C2100.20227,559.376032 2097.99846,553.682864 2098,547.985528 C2098.00154,542.452741 2100.08291,536.916443 2104.25815,532.649145 L2284.35412,348.596097 C2292.8288,339.935128 2306.72083,339.783743 2315.38223,348.257785 C2319.77668,352.556895 2321.98026,358.250063 2321.97894,363.947399 C2321.97741,369.480186 2319.89582,375.016484 2315.72057,379.283562 L2135.62461,563.33683 C2131.32671,567.728965 2125.63553,569.932822 2119.93995,569.932822" id="Fill-18-Copy-2" fill="#FF550E"></path>
                        <path d="M2380.93995,227.932822 C2375.40477,227.932822 2369.86543,225.851609 2365.59649,221.675142 C2361.20227,217.376032 2358.99846,211.682864 2359,205.985528 C2359.00154,200.452741 2361.08291,194.916443 2365.25815,190.649145 L2545.35412,6.59609699 C2553.8288,-2.06487189 2567.72083,-2.21625674 2576.38223,6.25778475 C2580.77668,10.5568952 2582.98026,16.2500628 2582.97894,21.9473989 C2582.97741,27.4801862 2580.89582,33.0164839 2576.72057,37.2835622 L2396.62461,221.33683 C2392.32671,225.728965 2386.63553,227.932822 2380.93995,227.932822" id="Fill-18-Copy-4" fill="#C82A2B"></path>
                        <path d="M1231.69409,238.770938 C1227.70052,238.770938 1223.71046,237.223083 1220.70075,234.139439 C1217.78472,231.151453 1216.33286,227.278853 1216.33395,223.409764 C1216.33505,219.41803 1217.88302,215.430027 1220.9658,212.421637 L1388.42347,49.0139721 C1394.49446,43.0897781 1404.21849,43.2084726 1410.14269,49.2790053 C1413.05871,52.2665525 1414.51058,56.139372 1414.50948,60.0084617 C1414.50839,64.0001951 1412.96063,67.9881988 1409.87764,70.9965888 L1242.42019,234.404473 C1239.43329,237.31918 1235.56216,238.770938 1231.69409,238.770938" id="Fill-20" fill="#FF550E"></path>
                        <path d="M914.256867,523.353732 L981.864739,454.19411 L1017.38933,534.292933 L914.256867,523.353732 Z M1041.46177,463.371542 C1025.76878,450.670572 1007.57622,440.571228 987.068383,433.134941 C957.93557,421.908766 932.142253,422.277575 909.626774,434.384414 C894.793888,444.750108 883.177625,456.222447 875.433596,468.779931 C874.982918,469.148739 874.777984,469.455897 874.491209,469.926945 C859.719979,489.8391 866.132379,510.918892 893.76966,533.125295 C911.040245,546.584506 929.76577,557.666974 950.048044,566.250715 L951.072273,566.455633 C984.466342,581.164098 1014.23436,580.222001 1040.35548,563.38274 C1048.30467,557.892735 1056.78637,549.677803 1065.82122,538.349389 C1083.31736,513.622977 1075.16346,488.671462 1041.46177,463.371542 Z" id="Fill-22" fill="#B82525"></path>
                        <path d="M800.122659,382.043627 C799.610545,382.637758 799.036775,383.231889 798.442818,383.784992 L774.882486,405.745449 L739.521582,438.686574 C734.625119,443.029565 728.499494,445.426272 721.26736,445.836108 C719.464647,445.938567 717.702745,445.917944 715.981655,445.774457 C715.121329,445.692402 714.260784,445.590163 713.420864,445.446676 C709.200638,444.750306 705.246562,443.275291 701.558856,441.001446 C695.35117,437.170532 691.888803,432.520165 690.987446,426.784434 C690.311209,423.138033 690.803138,419.696112 692.462572,416.500575 C692.790378,415.865417 693.17962,415.230478 693.589268,414.615944 C694.429188,413.386655 695.474042,412.198393 696.682799,411.051379 L726.143417,383.580074 L755.604035,356.108769 C757.345531,354.469863 759.291741,353.097307 761.442885,352.011724 C765.007499,350.188524 769.105072,349.143749 773.694135,348.8774 C779.328271,348.549618 784.490884,349.410099 789.120977,351.417594 C790.657539,352.09356 792.132666,352.892609 793.546356,353.814301 C793.914973,354.039623 794.283809,354.265165 794.63224,354.490487 C795.349288,354.941131 796.025305,355.432803 796.660292,355.924474 C796.988098,356.1702 797.295498,356.43655 797.582273,356.682276 C799.979381,358.772045 801.782094,361.168753 802.909009,363.83181 C803.052506,364.159591 803.175378,364.507776 803.298251,364.835557 C803.667087,365.859928 803.933237,366.925107 804.09714,368.010909 C804.62988,370.940535 804.424946,373.726456 803.482559,376.348485 C802.786136,378.376603 801.659221,380.261455 800.122659,382.043627 Z M838.843463,342.076051 C838.454221,341.74827 838.064979,341.400085 837.655332,341.0519 C833.598789,337.56939 828.620265,333.431318 822.781635,328.61706 C822.207865,328.125388 821.613689,327.65434 820.999108,327.142264 C818.60222,325.154954 816.041209,323.065624 813.357326,320.853211 C810.427699,318.497092 807.436635,316.264275 804.36351,314.154102 C798.21726,309.934194 791.763829,306.205739 784.982592,302.968955 C781.602287,301.350673 778.13992,299.875658 774.595711,298.523506 C767.548104,295.737586 760.336595,293.504549 752.920152,291.824836 C749.212041,290.984979 745.462898,290.267766 741.65232,289.694259 C737.841522,289.120751 733.989913,288.670107 730.056462,288.362949 C728.110252,288.239867 726.184447,288.157812 724.279049,288.137408 C722.37365,288.0966 720.509501,288.117004 718.645132,288.157812 C708.462965,288.465408 699.059281,290.104095 690.393271,293.258823 C689.614787,293.545796 688.815678,293.852954 688.057599,294.160331 C681.829727,296.516011 675.642446,299.40461 669.516821,302.846092 C663.390977,306.26717 657.327007,310.220948 651.324035,314.727829 C650.053842,315.64974 648.804275,316.592056 647.554487,317.534372 C635.548982,326.712024 625.141475,337.425903 616.250126,349.799092 C608.13726,360.738732 603.466136,372.927407 601.765671,386.038213 C601.335398,389.848723 601.41724,393.63861 601.929574,397.428278 C602.585186,402.303967 603.957626,407.138629 606.108989,411.952667 C609.857912,420.208407 614.672533,427.746934 620.572818,434.446043 C624.096622,438.461033 628.030292,442.189488 632.332579,445.590163 C633.233936,446.348184 634.135292,447.105986 635.016462,447.843603 C640.363603,452.288833 645.567247,456.304042 650.627612,459.930038 C651.467533,460.524169 652.307453,461.11808 653.147592,461.71243 C656.486868,464.027302 659.744301,466.157879 662.960924,468.103943 C666.177326,470.050006 669.311888,471.811775 672.385013,473.368845 C678.510638,476.359683 683.386695,478.367178 686.971934,479.370925 C687.873291,479.616871 688.692805,479.801165 689.430259,479.924248 C691.663463,480.292837 693.158995,480.108542 693.957885,479.35074 C690.802918,483.26349 687.606921,486.541082 684.390518,489.204359 C672.159674,499.324107 659.498557,500.491964 646.366356,492.768704 C643.723503,491.232257 641.613171,489.634599 639.974142,487.954446 C639.605525,487.585857 639.257094,487.196425 638.929507,486.828055 C635.774321,483.058572 635.016462,478.961308 636.634866,474.515859 C637.474787,472.221391 638.929507,469.824903 641.03962,467.346141 L551.879281,412.444339 C546.22474,420.229031 543.213271,428.279853 542.885465,436.576621 C542.782998,439.055164 542.926495,441.575173 543.315737,444.115367 C545.733251,460.15536 557.800192,477.076677 579.619029,494.83763 C591.808842,504.343283 604.101123,512.906181 616.475465,520.526763 C616.49587,520.526763 616.49587,520.547167 616.516495,520.547167 C619.568995,522.432018 622.621495,524.234814 625.674215,525.996583 C625.756276,526.057795 625.858523,526.099042 625.940584,526.160254 C635.200771,531.486587 644.501987,536.280222 653.844015,540.541376 C683.263603,550.90707 710.081369,552.484325 734.297313,545.314387 C735.567506,544.945798 736.837699,544.535962 738.107892,544.105722 C741.898064,542.835625 745.606176,541.340425 749.253071,539.619464 C750.461828,539.045957 751.670365,538.451826 752.879341,537.837292 C762.508144,532.900171 771.666083,526.406199 780.352499,518.355377 L923.926854,376.328301 L851.135744,330.850096 L838.843463,342.076051 Z" id="Fill-24" fill="#B82525"></path>
                        <path d="M1299.8379,335.314442 L1372.24482,261.245343 L1410.29136,347.030094 L1299.8379,335.314442 Z M1436.09455,271.096548 C1419.28737,257.49385 1399.80333,246.677512 1377.8399,238.713133 C1346.6391,226.690104 1319.01477,227.085021 1294.90107,240.051682 C1279.01543,251.153019 1266.57461,263.439326 1258.28072,276.888444 C1257.79801,277.283581 1257.5786,277.612678 1257.27141,278.117294 C1241.4516,299.442813 1248.31929,322.018683 1277.91836,345.801682 C1296.41503,360.216153 1316.46955,372.085604 1338.19163,381.278394 L1339.2887,381.497792 C1375.05333,397.250593 1406.93431,396.241141 1434.90971,378.206817 C1443.42301,372.326722 1452.50679,363.529068 1462.18298,351.39634 C1480.92102,324.893021 1472.1883,298.192243 1436.09455,271.096548 Z" id="Fill-26" fill="#B82525"></path>
                        <path d="M2149.8379,140.314442 L2222.24482,66.2453426 L2260.29136,152.030094 L2149.8379,140.314442 Z M2286.09455,76.0965475 C2269.28737,62.4938504 2249.80333,51.6775122 2227.8399,43.7131331 C2196.6391,31.690104 2169.01477,32.0850211 2144.90107,45.0516824 C2129.01543,56.153019 2116.57461,68.439326 2108.28072,81.8884443 C2107.79801,82.2835807 2107.5786,82.6126782 2107.27141,83.1172944 C2091.4516,104.442813 2098.31929,127.018683 2127.91836,150.801682 C2146.41503,165.216153 2166.46955,177.085604 2188.19163,186.278394 L2189.2887,186.497792 C2225.05333,202.250593 2256.93431,201.241141 2284.90971,183.206817 C2293.42301,177.326722 2302.50679,168.529068 2312.18298,156.39634 C2330.92102,129.893021 2322.1883,103.192243 2286.09455,76.0965475 Z" id="Fill-26-Copy-2" fill="#B82525"></path>
                        <path d="M2232.8379,624.314442 L2305.24482,550.245343 L2343.29136,636.030094 L2232.8379,624.314442 Z M2369.09455,560.096548 C2352.28737,546.49385 2332.80333,535.677512 2310.8399,527.713133 C2279.6391,515.690104 2252.01477,516.085021 2227.90107,529.051682 C2212.01543,540.153019 2199.57461,552.439326 2191.28072,565.888444 C2190.79801,566.283581 2190.5786,566.612678 2190.27141,567.117294 C2174.4516,588.442813 2181.31929,611.018683 2210.91836,634.801682 C2229.41503,649.216153 2249.46955,661.085604 2271.19163,670.278394 L2272.2887,670.497792 C2308.05333,686.250593 2339.93431,685.241141 2367.90971,667.206817 C2376.42301,661.326722 2385.50679,652.529068 2395.18298,640.39634 C2413.92102,613.893021 2405.1883,587.192243 2369.09455,560.096548 Z" id="Fill-26-Copy" fill="#B82525"></path>
                        <path d="M1177.50968,184.564451 C1176.96115,185.200706 1176.34656,185.837181 1175.71048,186.429337 L1150.47777,209.948839 L1112.60654,245.228092 C1107.36274,249.879337 1100.80202,252.446298 1093.05689,252.885094 C1091.12582,252.994794 1089.23885,252.973073 1087.39577,252.819494 C1086.47444,252.731516 1085.55268,252.621816 1084.65308,252.468238 C1080.13313,251.722503 1075.89843,250.142615 1071.94896,247.707513 C1065.30091,243.604764 1061.59257,238.624202 1060.62715,232.481049 C1059.90308,228.575978 1060.42968,224.890086 1062.20694,221.467252 C1062.55822,220.787337 1062.97489,220.106982 1063.41372,219.448787 C1064.31354,218.132397 1065.43234,216.859887 1066.7271,215.631476 L1098.27875,186.209939 L1129.83061,156.788621 C1131.69563,155.033435 1133.78007,153.563466 1136.08393,152.400655 C1139.90197,150.448009 1144.29027,149.329078 1149.20516,149.044079 C1155.23907,148.692823 1160.76811,149.614296 1165.7271,151.764399 C1167.37271,152.488633 1168.9525,153.344067 1170.46625,154.33136 C1170.86119,154.572917 1171.25636,154.814036 1171.62914,155.055374 C1172.3971,155.538051 1173.12138,156.064826 1173.80157,156.591163 C1174.15242,156.854441 1174.48154,157.139659 1174.78894,157.402937 C1177.35609,159.6408 1179.28694,162.20776 1180.49373,165.059939 C1180.64732,165.410976 1180.77875,165.783953 1180.91061,166.134991 C1181.30556,167.231982 1181.5908,168.372854 1181.76611,169.535665 C1182.33681,172.673061 1182.1174,175.656879 1181.10787,178.465177 C1180.38402,180.63744 1179.17724,182.655905 1177.50968,184.564451 Z M1219.00104,141.781775 C1218.58393,141.430738 1218.16726,141.05776 1217.72843,140.684783 C1213.38402,136.955011 1208.05202,132.523384 1201.79869,127.367523 C1201.18433,126.840748 1200.54825,126.336351 1199.89,125.787855 C1197.32285,123.659472 1194.58016,121.421828 1191.70561,119.052107 C1188.56797,116.529026 1185.36474,114.137803 1182.07351,111.878 C1175.49107,107.358395 1168.5795,103.365125 1161.31664,99.8988511 C1157.6963,98.1656042 1153.98841,96.5857168 1150.19253,95.1376877 C1142.64466,92.1540897 1134.92103,89.7624284 1126.97821,87.9635814 C1123.00702,87.0640482 1118.99173,86.296154 1114.91039,85.6818387 C1110.8295,85.0675233 1106.7045,84.584847 1102.49173,84.2557494 C1100.40729,84.1241104 1098.34457,84.0363511 1096.30401,84.0144113 C1094.26367,83.9924714 1092.267,83.9924714 1090.2701,84.0363511 C1079.36518,84.3654486 1069.29404,86.1206353 1060.01301,89.4993698 C1059.17901,89.8065275 1058.32351,90.135625 1057.51168,90.4647225 C1050.84125,92.9878034 1044.21513,96.08132 1037.65463,99.7669927 C1031.0939,103.430945 1024.59944,107.665333 1018.17059,112.492096 C1016.81021,113.479389 1015.47178,114.488841 1014.13313,115.497854 C1001.27564,125.326899 990.129363,136.801652 980.606757,150.053092 C971.917927,161.769183 966.915048,174.823384 965.093905,188.864878 C964.633353,192.945468 964.720899,197.004337 965.269437,201.063206 C965.971564,206.284887 967.441863,211.462907 969.74572,216.618768 C973.760793,225.460302 978.917043,233.534161 985.236192,240.708486 C989.010128,245.008694 993.223113,249.001744 997.830826,252.643976 C998.796252,253.45553 999.761458,254.267304 1000.70494,255.057357 C1006.43189,259.818082 1012.00481,264.118509 1017.42436,268.001859 C1018.32418,268.637895 1019.22378,269.27437 1020.12316,269.910406 C1023.69984,272.389826 1027.18832,274.67135 1030.63335,276.755634 C1034.07817,278.839918 1037.43521,280.726963 1040.72644,282.394171 C1047.28694,285.597387 1052.50902,287.747491 1056.34878,288.822542 C1057.31398,289.085821 1058.19164,289.283498 1058.98176,289.414918 C1061.37316,289.809835 1062.97511,289.612377 1063.83061,288.800603 C1060.45184,292.991111 1057.02875,296.501484 1053.58393,299.353663 C1040.48508,310.191941 1026.92502,311.442731 1012.86075,303.171194 C1010.03007,301.525706 1007.7701,299.814399 1006.01478,298.015333 C1005.62005,297.620416 1005.24683,297.203559 1004.89599,296.808642 C1001.51678,292.771713 1000.70494,288.383746 1002.43854,283.622802 C1003.33792,281.16554 1004.89599,278.59858 1007.15596,275.94386 L911.666597,217.145105 C905.610746,225.482242 902.385347,234.104596 902.034284,242.990229 C901.924576,245.644949 902.078167,248.343549 902.495055,251.064088 C905.084151,268.242978 918.007688,286.365281 941.375374,305.387117 C954.43056,315.5672 967.595454,324.738051 980.847894,332.899669 C980.870055,332.899669 980.870055,332.921609 980.891777,332.921609 C984.161278,334.940074 987.430341,336.870779 990.699842,338.757824 C990.787608,338.823644 990.897315,338.867523 990.984862,338.933343 C1000.90263,344.6377 1010.86407,349.771401 1020.86939,354.335106 C1052.37715,365.436443 1081.09878,367.12603 1107.03362,359.447088 C1108.39399,359.052171 1109.75414,358.613374 1111.11452,358.152418 C1115.17369,356.792148 1119.14532,355.19054 1123.05091,353.347814 C1124.34523,352.733279 1125.64,352.097243 1126.93455,351.439048 C1137.24705,346.151329 1147.05468,339.196621 1156.35809,330.574047 L1310.12382,178.465177 L1232.16593,129.758746 L1219.00104,141.781775 Z" id="Fill-28" fill="#B82525"></path>
                        <path d="M345.509683,473.564451 C344.961145,474.200706 344.346564,474.837181 343.71048,475.429337 L318.477768,498.948839 L280.606538,534.228092 C275.362741,538.879337 268.802016,541.446298 261.05689,541.885094 C259.125819,541.994794 257.238851,541.973073 255.395766,541.819494 C254.474443,541.731516 253.552681,541.621816 252.65308,541.468238 C248.133133,540.722503 243.898426,539.142615 239.948958,536.707513 C233.300906,532.604764 229.592575,527.624202 228.627149,521.481049 C227.90308,517.575978 228.429676,513.890086 230.206937,510.467252 C230.55822,509.787337 230.974889,509.106982 231.413718,508.448787 C232.313539,507.132397 233.432335,505.859887 234.727103,504.631476 L266.278745,475.209939 L297.830607,445.788621 C299.695633,444.033435 301.780075,442.563466 304.083931,441.400655 C307.90197,439.448009 312.290268,438.329078 317.205161,438.044079 C323.239071,437.692823 328.768107,438.614296 333.727103,440.764399 C335.372714,441.488633 336.952502,442.344067 338.466245,443.33136 C338.861192,443.572917 339.256358,443.814036 339.629144,444.055374 C340.397096,444.538051 341.121385,445.064826 341.801571,445.591163 C342.152415,445.854441 342.481538,446.139659 342.788938,446.402937 C345.356092,448.6408 347.286943,451.20776 348.493725,454.059939 C348.647315,454.410976 348.778745,454.783953 348.910613,455.134991 C349.30556,456.231982 349.5908,457.372854 349.766112,458.535665 C350.33681,461.673061 350.117395,464.656879 349.107867,467.465177 C348.384018,469.63744 347.177236,471.655905 345.509683,473.564451 Z M387.001039,430.781775 C386.583931,430.430738 386.167262,430.05776 385.728433,429.684783 C381.384018,425.955011 376.052016,421.523384 369.798692,416.367523 C369.18433,415.840748 368.548246,415.336351 367.890002,414.787855 C365.322847,412.659472 362.580161,410.421828 359.705607,408.052107 C356.567974,405.529026 353.364736,403.137803 350.073512,400.878 C343.491065,396.358395 336.579496,392.365125 329.316644,388.898851 C325.696298,387.165604 321.988406,385.585717 318.192528,384.137688 C310.644656,381.15409 302.921032,378.762428 294.978213,376.963581 C291.007023,376.064048 286.99173,375.296154 282.910394,374.681839 C278.829496,374.067523 274.704496,373.584847 270.49173,373.255749 C268.407289,373.12411 266.344569,373.036351 264.304011,373.014411 C262.263672,372.992471 260.266996,372.992471 258.270101,373.036351 C247.365181,373.365449 237.294038,375.120635 228.013007,378.49937 C227.179011,378.806527 226.323512,379.135625 225.511677,379.464722 C218.841245,381.987803 212.215135,385.08132 205.654629,388.766993 C199.093905,392.430945 192.599443,396.665333 186.170587,401.492096 C184.810214,402.479389 183.471784,403.488841 182.133133,404.497854 C169.27564,414.326899 158.129363,425.801652 148.606757,439.053092 C139.917927,450.769183 134.915048,463.823384 133.093905,477.864878 C132.633353,481.945468 132.720899,486.004337 133.269437,490.063206 C133.971564,495.284887 135.441863,500.462907 137.74572,505.618768 C141.760793,514.460302 146.917043,522.534161 153.236192,529.708486 C157.010128,534.008694 161.223113,538.001744 165.830826,541.643976 C166.796252,542.45553 167.761458,543.267304 168.704942,544.057357 C174.43189,548.818082 180.004809,553.118509 185.424357,557.001859 C186.324177,557.637895 187.223778,558.27437 188.12316,558.910406 C191.699842,561.389826 195.188319,563.67135 198.633353,565.755634 C202.078167,567.839918 205.435214,569.726963 208.726438,571.394171 C215.286943,574.597387 220.509018,576.747491 224.348778,577.822542 C225.313984,578.085821 226.191644,578.283498 226.981757,578.414918 C229.37316,578.809835 230.975108,578.612377 231.830607,577.800603 C228.451837,581.991111 225.028745,585.501484 221.583931,588.353663 C208.485081,599.191941 194.925022,600.442731 180.860746,592.171194 C178.030075,590.525706 175.770101,588.814399 174.014782,587.015333 C173.620055,586.620416 173.24683,586.203559 172.895986,585.808642 C169.516777,581.771713 168.704942,577.383746 170.438539,572.622802 C171.337921,570.16554 172.895986,567.59858 175.155959,564.94386 L79.6665974,506.145105 C73.6107463,514.482242 70.3853474,523.104596 70.0342836,531.990229 C69.9245761,534.644949 70.0781666,537.343549 70.4950549,540.064088 C73.0841506,557.242978 86.0076878,575.365281 109.375374,594.387117 C122.43056,604.5672 135.595454,613.738051 148.847894,621.899669 C148.870055,621.899669 148.870055,621.921609 148.891777,621.921609 C152.161278,623.940074 155.430341,625.870779 158.699842,627.757824 C158.787608,627.823644 158.897315,627.867523 158.984862,627.933343 C168.902635,633.6377 178.864071,638.771401 188.86939,643.335106 C220.377149,654.436443 249.098778,656.12603 275.033619,648.447088 C276.393991,648.052171 277.754144,647.613374 279.114516,647.152418 C283.173692,645.792148 287.145321,644.19054 291.050906,642.347814 C292.345234,641.733279 293.640002,641.097243 294.93455,640.439048 C305.24705,635.151329 315.054676,628.196621 324.358087,619.574047 L478.123825,467.465177 L400.165933,418.758746 L387.001039,430.781775 Z" id="Fill-28-Copy" fill="#B82525"></path>
                        <polygon id="Fill-30" fill="#FF550E" points="522.495875 634.66989 492.845186 593.020801 644.522371 458.250368 688.786693 485.164401"></polygon>
                        <path d="M1027.09345,314.058126 C1019.46132,314.058126 1011.85706,310.966146 1006.31486,304.877403 C1001.42103,299.500827 999.004614,292.741822 999.000007,286.002564 C998.994741,278.364649 1002.08717,270.751966 1008.18142,265.206014 L1138.82105,146.314273 C1150.29184,135.874861 1168.05479,136.710111 1178.49543,148.180475 C1183.38926,153.557051 1185.80568,160.316275 1185.81029,167.055534 C1185.81555,174.693448 1182.72312,182.305693 1176.62909,187.852083 L1045.98924,306.743824 C1040.60743,311.641673 1033.83936,314.058126 1027.09345,314.058126" id="Fill-32" fill="#FF550E"></path>
                        <path d="M781.584251,247.007591 L779.020826,256.194238 C778.848147,256.822156 778.192535,257.176265 777.564789,257.003599 C777.351079,256.93032 777.155142,256.811186 777.008572,256.647954 L770.181478,249.066644 C769.740893,248.577386 769.779949,247.833845 770.269244,247.393293 C770.432269,247.246516 770.639397,247.148664 770.85947,247.097983 L780.26447,245.5091 C780.907136,245.403131 781.521937,245.823717 781.628134,246.466116 C781.632961,246.668401 781.623307,246.854231 781.584251,247.007591" id="Fill-34" fill="#C62828"></path>
                        <path d="M794.63687,234.812992 L791.905593,243.944132 C791.717993,244.555814 791.062382,244.909923 790.434636,244.737037 C790.220926,244.663758 790.025207,244.544625 789.878419,244.381612 L783.181657,236.682705 C782.757528,236.178966 782.811285,235.451441 783.30036,235.011109 C783.463605,234.864332 783.670733,234.76648 783.905507,234.732254 L793.333545,233.300021 C793.975992,233.193613 794.589257,233.645354 794.664297,234.286217 C794.7005,234.490038 794.675926,234.659633 794.63687,234.812992" id="Fill-36" fill="#C62828"></path>
                        <path d="M1214.68878,553.514576 L1212.12536,562.701223 C1211.95246,563.329141 1211.29706,563.68325 1210.6691,563.510583 C1210.45539,563.437304 1210.25967,563.318171 1210.1131,563.154939 L1203.28579,555.573629 C1202.84542,555.084371 1202.88448,554.34083 1203.37377,553.900278 C1203.5368,553.7535 1203.74371,553.655649 1203.96378,553.604968 L1213.36878,552.016085 C1214.01145,551.910116 1214.62647,552.330702 1214.73244,552.973101 C1214.73771,553.175386 1214.74407,553.346516 1214.68878,553.514576" id="Fill-38" fill="#C62828"></path>
                        <path d="M1227.7414,541.319955 L1225.01012,550.451314 C1224.82252,551.062777 1224.16713,551.416886 1223.53916,551.24422 C1223.32545,551.170721 1223.12974,551.051807 1222.98295,550.888794 L1216.2864,543.189668 C1215.86206,542.686149 1215.91581,541.958624 1216.40511,541.518291 C1216.56813,541.371294 1216.77526,541.273443 1217.01004,541.239217 L1226.43807,539.806984 C1227.08052,539.700795 1227.69379,540.152537 1227.76904,540.793399 C1227.80656,540.966066 1227.79669,541.151896 1227.7414,541.319955" id="Fill-40" fill="#C62828"></path>
                        <path d="M639.863557,247.157133 L637.024328,259.894084 C636.838045,260.762901 635.969162,261.32149 635.100498,261.104066 C634.805604,261.026618 634.541868,260.886862 634.324647,260.669877 L624.441542,250.787517 C623.805458,250.151262 623.805458,249.12733 624.441542,248.491513 C624.658763,248.274309 624.938078,248.119195 625.217393,248.057105 L637.955086,245.21809 C638.823969,245.031821 639.677273,245.574832 639.878916,246.428072 C639.910072,246.676431 639.910072,246.924351 639.863557,247.157133" id="Fill-42" fill="#FF550E"></path>
                        <path d="M1743.56074,201.293134 C1737.55798,201.293134 1731.5809,198.845526 1727.24812,194.033681 C1723.47089,189.839224 1721.61091,184.588363 1721.61201,179.356152 C1721.6131,173.355826 1724.06134,167.379854 1728.87179,163.048712 L1899.18163,9.71099243 C1908.18707,1.60356556 1922.06068,2.33043226 1930.16915,11.3349789 C1933.94638,15.5294364 1935.80614,20.7800775 1935.80526,26.0125085 C1935.80417,32.0128337 1933.35572,37.9888057 1928.54548,42.3199483 L1758.23542,195.657448 C1754.04241,199.432855 1748.79137,201.293134 1743.56074,201.293134" id="Fill-12-Copy" fill="#FF550E"></path>
                        <path d="M1713.6239,215.953813 L1710.78467,228.690765 C1710.59839,229.559582 1709.72951,230.11817 1708.86084,229.900746 C1708.56595,229.823299 1708.30221,229.683542 1708.08499,229.466557 L1698.20189,219.584198 C1697.5658,218.947942 1697.5658,217.92401 1698.20189,217.288194 C1698.41911,217.07099 1698.69842,216.915875 1698.97774,216.853785 L1711.71543,214.014771 C1712.58431,213.828502 1713.43762,214.371512 1713.63926,215.224753 C1713.67042,215.473112 1713.67042,215.721032 1713.6239,215.953813" id="Fill-42-Copy" fill="#FF550E"></path>
                        <path d="M906.86072,303.084424 L904.611059,315.945336 C904.455933,316.814153 903.618207,317.403896 902.749324,317.248562 C902.45443,317.202049 902.159756,317.062512 901.942535,316.845308 L891.594051,307.428292 C890.926811,306.823192 890.880295,305.814837 891.485441,305.147866 C891.687083,304.915084 891.966398,304.75997 892.261072,304.682303 L904.843858,301.22283 C905.697163,300.990048 906.596983,301.486546 906.829783,302.339786 C906.876299,302.603723 906.891877,302.836285 906.86072,303.084424" id="Fill-44" fill="#FF550E"></path>
                        <path d="M599.799977,321.857134 C598.588148,321.857134 597.605828,320.874668 597.605828,319.66315 L597.605828,305.577777 C597.605828,304.36604 598.588148,303.383793 599.799977,303.383793 C601.011805,303.383793 601.994126,304.36604 601.994126,305.577777 L601.994126,319.66315 C601.994126,320.874668 601.011805,321.857134 599.799977,321.857134" id="Fill-46" fill="#B82525"></path>
                        <path d="M606.909107,314.814535 L592.647139,314.814535 C591.435311,314.814535 590.45299,313.832069 590.45299,312.620551 C590.45299,311.409034 591.435311,310.426568 592.647139,310.426568 L606.909107,310.426568 C608.120936,310.426568 609.103256,311.409034 609.103256,312.620551 C609.103256,313.832069 608.120936,314.814535 606.909107,314.814535" id="Fill-48" fill="#B82525"></path>
                        <path d="M1162.61181,462.44769 L1159.13861,458.974909 C1158.2818,458.118159 1158.2818,456.728929 1159.13861,455.871959 C1159.99587,455.015427 1161.38476,455.015427 1162.2418,455.871959 L1165.71491,459.344815 L1169.14411,455.915882 C1170.00136,455.059351 1171.39026,455.05979 1172.24729,455.915882 C1173.10411,456.772852 1173.10411,458.162082 1172.24729,459.018833 L1168.81802,462.44769 L1172.31294,465.942342 C1173.16997,466.799093 1173.16997,468.188323 1172.31294,469.045074 C1171.88442,469.473339 1171.32316,469.687691 1170.76146,469.687691 C1170.19975,469.687691 1169.63849,469.473339 1169.20997,469.045074 L1165.71491,465.550429 L1162.28563,468.979298 C1161.85712,469.407564 1161.29563,469.621916 1160.73415,469.621916 C1160.17245,469.621916 1159.61119,469.407564 1159.18267,468.979298 C1158.32563,468.122548 1158.32563,466.733317 1159.18267,465.876567 L1162.61181,462.44769 Z" id="Path" fill="#B82525"></path>
                        <path d="M1618.99478,520.953914 L1615.52159,517.481133 C1614.66477,516.624383 1614.66477,515.235153 1615.52159,514.378183 C1616.37884,513.521652 1617.76774,513.521652 1618.62477,514.378183 L1622.09789,517.851039 L1625.52708,514.422106 C1626.38434,513.565575 1627.77323,513.566014 1628.63027,514.422106 C1629.48708,515.279076 1629.48708,516.668306 1628.63027,517.525057 L1625.201,520.953914 L1628.69592,524.448566 C1629.55295,525.305317 1629.55295,526.694547 1628.69592,527.551298 C1628.2674,527.979563 1627.70614,528.193916 1627.14444,528.193916 C1626.58273,528.193916 1626.02147,527.979563 1625.59295,527.551298 L1622.09789,524.056653 L1618.66861,527.485522 C1618.2401,527.913788 1617.67861,528.12814 1617.11713,528.12814 C1616.55543,528.12814 1615.99417,527.913788 1615.56565,527.485522 C1614.70861,526.628772 1614.70861,525.239541 1615.56565,524.382791 L1618.99478,520.953914 Z" id="Path-Copy" fill="#B82525"></path>
                        <path d="M1221.90698,283.703894 C1220.69537,283.703894 1219.71283,282.721428 1219.71283,281.509911 L1219.71283,267.424537 C1219.71283,266.2128 1220.69537,265.230554 1221.90698,265.230554 C1223.11859,265.230554 1224.10113,266.2128 1224.10113,267.424537 L1224.10113,281.509911 C1224.10113,282.721428 1223.11859,283.703894 1221.90698,283.703894" id="Fill-54" fill="#B82525"></path>
                        <path d="M1229.03796,276.661076 L1214.776,276.661076 C1213.56439,276.661076 1212.58185,275.67861 1212.58185,274.467092 C1212.58185,273.255575 1213.56439,272.273109 1214.776,272.273109 L1229.03796,272.273109 C1230.24957,272.273109 1231.23211,273.255575 1231.23211,274.467092 C1231.23211,275.67861 1230.24957,276.661076 1229.03796,276.661076" id="Fill-56" fill="#B82525"></path>
                        <path d="M818.073979,596.587779 C817.512496,596.587779 816.951013,596.373427 816.522496,595.945162 C815.665681,595.088411 815.665461,593.699181 816.522496,592.84243 L826.483932,582.881526 C827.340747,582.024995 828.729863,582.024995 829.586898,582.881526 C830.443713,583.738496 830.443713,585.127726 829.586898,585.984477 L819.625461,595.945162 C819.197164,596.373427 818.635461,596.587779 818.073979,596.587779" id="Fill-58" fill="#B82525"></path>
                        <path d="M828.101283,596.653555 C827.539801,596.653555 826.978318,596.439203 826.549801,596.010937 L816.478657,585.940773 C815.621842,585.084022 815.621622,583.694792 816.478437,582.837822 C817.335472,581.981291 818.724588,581.981291 819.581403,582.837822 L829.652766,592.908206 C830.509581,593.764956 830.509801,595.154187 829.652766,596.010937 C829.224468,596.439203 828.662766,596.653555 828.101283,596.653555" id="Fill-60" fill="#B82525"></path>
                        <path d="M605.151111,745.741375 C599.509735,745.741375 593.869894,743.579424 589.580991,739.260567 C585.33268,734.9823 583.21028,729.393785 583.209183,723.806148 C583.208086,718.1641 585.3702,712.522711 589.690699,708.233035 L772.424908,526.798725 C781.023997,518.261058 794.916251,518.310203 803.454781,526.908205 C807.703092,531.186472 809.825493,536.774987 809.82659,542.362624 C809.827687,548.004672 807.665572,553.646061 803.345074,557.935737 L620.610646,739.370047 C616.331178,743.619135 610.740486,745.741375 605.151111,745.741375" id="Fill-62" fill="#FF550E"></path>
                    </g>
                </g>
                <path d="M1463.88474,170.096909 C1463.12007,170.096909 1462.3541,170.076944 1461.58658,170.036794 C1449.96396,169.427744 1439.05948,164.226906 1431.27178,155.578662 C1424.00125,147.504365 1420.00329,137.043013 1420,126.232379 C1419.99978,125.463388 1420.01975,124.692642 1420.06012,123.920798 C1420.66922,112.299268 1425.87045,101.39561 1434.51934,93.6082848 L1604.8294,-59.7289958 C1613.47852,-67.5161011 1624.86681,-71.548862 1636.48944,-70.9398122 C1648.11184,-70.3309818 1659.01654,-65.1301441 1666.80424,-56.4819003 C1674.07477,-48.4076026 1678.07251,-37.9460316 1678.07602,-27.1356172 C1678.07624,-26.366626 1678.05627,-25.5956602 1678.01568,-24.8240362 C1677.4068,-13.2025062 1672.20557,-2.29884744 1663.55668,5.48869664 L1493.24662,158.825977 C1485.16864,166.098813 1474.70057,170.096909 1463.88474,170.096909" id="Fill-10-Copy" fill="#C82A2B" mask="url(#mask-2)"></path>
            </g>
            <g id="Rectangle" opacity="0.798386347">
                <use fill="#C82A2B" fill-rule="evenodd" xlink:href="#path-3"></use>
                <use fill="black" fill-opacity="1" filter="url(#filter-4)" xlink:href="#path-3"></use>
            </g>
            <g id="7ea5db5f86031d6b7a6c1d5bd20521c9" transform="translate(644.000000, 0.000000)">
                <mask id="mask-6" fill="white">
                    <use xlink:href="#path-5"></use>
                </mask>
                <g id="Mask"></g>
            </g>
        </g>
    </g>
</svg>